<svg id="Слой_1" data-name="Слой 1" xmlns="http://www.w3.org/2000/svg" viewBox="0 0 86.47 76.99"><defs><style>.cls-1{fill:#60c6d1;}</style></defs><title>Безымянный-5</title><path class="cls-1" d="M71.58,45.86H69v11H12V17.43s.12,0,.17,0h42V14.89h-42a2.63,2.63,0,0,0-2.71,2.54V57.61L0,69.79v4.5A2.77,2.77,0,0,0,2.71,77H78.52a2.63,2.63,0,0,0,2.54-2.71v-4.5L71.58,57.61Zm-1.8,13.54L77.28,69H46.86L45.5,70.39H35.72L34.37,69H3.95l7.5-9.65Zm8.74,15.06H2.71a.3.3,0,0,1-.17-.17V71.58H33.32l1.35,1.35H46.55l1.35-1.35H78.52v2.71s0,.17,0,.17Zm0,0"/><path class="cls-1" d="M55.33,41.8V31.54l-14.76-7.4-16.4,8.19,7,3.49v6a2.77,2.77,0,0,0,2.71,2.71H47.38a2.63,2.63,0,0,0,2.54-2.71v-6l2.88-1.44V41.8Zm-8,0s0,.17,0,.17H33.84a.3.3,0,0,1-.17-.17V37.08l6.85,3.43,6.85-3.43Zm-6.77-4.13-10.7-5.35L40.61,27l10.7,5.35Zm0,0"/><rect class="cls-1" x="33.84" y="47.38" width="2.71" height="2.54"/><rect class="cls-1" x="39.26" y="47.38" width="2.71" height="2.54"/><rect class="cls-1" x="44.67" y="47.38" width="2.71" height="2.54"/><path class="cls-1" d="M81.05,5.41H62.27v9.31H81.05Zm-2.54,6.77H64.81V8H78.52Zm0,0"/><path class="cls-1" d="M56.86,0V20.31h-42V54h46V51.44H17.43V22.84H56.86v19h6.77V52.63h2.54V41.8H86.47V0ZM83.93,39.26H59.4V2.54H83.93Zm0,0"/><path class="cls-1" d="M73.1,36.38h8v-8h-8ZM75.64,31h2.88v2.88H75.64Zm0,0"/><path class="cls-1" d="M73.1,25.55h8v-8h-8Zm2.54-5.41h2.88V23H75.64Zm0,0"/><path class="cls-1" d="M70.22,28.43h-8v8h8Zm-2.54,5.41H64.81V31h2.88Zm0,0"/></svg>