<svg id="Слой_1" data-name="Слой 1" xmlns="http://www.w3.org/2000/svg" viewBox="0 0 78.64 84.26"><defs><style>.cls-1{fill:#60c6d1;}</style></defs><title>Безымянный-5</title><path class="cls-1" d="M1.4,37.92h3L9.84,80.23a1.4,1.4,0,0,0,1.39,1.22H44.29a8.4,8.4,0,0,0,6.26,2.81h2.2a10,10,0,0,0,4.44-1,7.16,7.16,0,0,1,6.38,0,10,10,0,0,0,4.44,1h2.2a8.43,8.43,0,0,0,8.43-8.43V67.41A8.43,8.43,0,0,0,70.22,59H68a10,10,0,0,0-4.44,1,7.16,7.16,0,0,1-6.38,0,9.94,9.94,0,0,0-2.53-.84l2.74-21.27h3a1.4,1.4,0,0,0,1.4-1.4V30.89a1.4,1.4,0,0,0-1.4-1.4H54.77V25.28a1.4,1.4,0,0,0-.41-1l-6.61-6.61V13.31l2.13-1.7,3.64,7.27L56,17.63,52.12,9.82l1.74-1.39H59A1.4,1.4,0,0,0,60.39,7V1.4A1.4,1.4,0,0,0,59,0h-14A12.65,12.65,0,0,0,32.3,12.64,1.4,1.4,0,0,0,33.7,14h2.81v3.63l-3.8,3.8a1.4,1.4,0,0,0-.41,1v7H29.49V18.26a1.39,1.39,0,0,0-.1-.51l-.09-.16a1.57,1.57,0,0,0-.12-.21l-5.31-6.64V1.4A1.4,1.4,0,0,0,22.47,0H14a1.4,1.4,0,0,0-1.4,1.4v9.34L7.33,17.38a1.57,1.57,0,0,0-.12.21l-.09.16a1.39,1.39,0,0,0-.1.51V29.49H1.4A1.4,1.4,0,0,0,0,30.89v5.62A1.4,1.4,0,0,0,1.4,37.92ZM70.22,81.45H68a7.16,7.16,0,0,1-3.19-.75,10,10,0,0,0-8.89,0,7.16,7.16,0,0,1-3.19.75h-2.2a5.62,5.62,0,0,1-5.62-5.62V73.67a8.38,8.38,0,0,0,5.62,2.16h2.2a10,10,0,0,0,4.44-1,7.16,7.16,0,0,1,6.38,0,10,10,0,0,0,4.44,1h2.2a8.38,8.38,0,0,0,5.62-2.16v2.16A5.62,5.62,0,0,1,70.22,81.45ZM64.83,62.54A7.16,7.16,0,0,1,68,61.79h2.2a5.62,5.62,0,0,1,0,11.23H68a7.16,7.16,0,0,1-3.19-.75,10,10,0,0,0-8.89,0,7.16,7.16,0,0,1-3.19.75h-2.2a5.62,5.62,0,1,1,0-11.23h2.2a7.16,7.16,0,0,1,3.19.75A10,10,0,0,0,64.83,62.54ZM51.86,59h-1.3a8.43,8.43,0,0,0-8.43,8.43v8.43a8.39,8.39,0,0,0,.49,2.81H12.47L7.21,37.92H14V63.19a5.62,5.62,0,0,0,5.62,5.62h14a5.62,5.62,0,0,0,5.62-5.62V51.42L43,53.26a4.48,4.48,0,0,0,6-2v0a4.55,4.55,0,0,0,.26-3.48A4.49,4.49,0,0,0,47,45.09l-7.66-3.83V37.92H54.58ZM33.7,32.3h2.81v9.83a1.4,1.4,0,0,0,.78,1.26l8.43,4.21a1.7,1.7,0,0,1,.86,1,1.81,1.81,0,0,1-.14,1.4,1.64,1.64,0,0,1-2.2.74h0l-5.7-2.85a1.4,1.4,0,0,0-2,1.26v14A2.81,2.81,0,0,1,33.7,66V53.36H30.89V66H28.09V53.36H25.28V66H22.47V53.36H19.66V66a2.81,2.81,0,0,1-2.81-2.81V32.3ZM59,35.11H39.32V32.3H59ZM57.58,5.62H54.77V2.81h2.81ZM44.94,2.81h7V6.35l-6.11,4.89H35.21A9.85,9.85,0,0,1,44.94,2.81Zm0,11.23v2.81H39.32V14Zm-9.83,9,3.39-3.39h7.26l6.2,6.2v3.63H35.11ZM14.72,12.64H21.8l3.37,4.21H11.35Zm.73-9.83h5.62v7H15.45ZM9.83,19.66H26.68v9.83H9.83Zm-7,12.64H14v2.81H2.81Z"/><rect class="cls-1" x="68.81" y="64.6" width="2.81" height="2.81"/><rect class="cls-1" x="54.77" y="64.6" width="2.81" height="2.81"/><rect class="cls-1" x="49.15" y="66" width="2.81" height="2.81"/><rect class="cls-1" x="63.19" y="66" width="2.81" height="2.81"/></svg>