<svg id="Слой_1" data-name="Слой 1" xmlns="http://www.w3.org/2000/svg" viewBox="0 0 86 86"><defs><style>.cls-1{fill:#60c6d1;}</style></defs><title>Безымянный-5</title><path class="cls-1" d="M1.43,86H7.17A1.43,1.43,0,0,0,8.6,84.57v-4.3h43v4.3A1.43,1.43,0,0,0,53,86h5.73a1.43,1.43,0,0,0,1.43-1.43V61.63a7.18,7.18,0,0,0-5.73-7v-13a4.31,4.31,0,0,0-4.3-4.3H10a4.31,4.31,0,0,0-4.3,4.3v13a7.18,7.18,0,0,0-5.73,7V84.57A1.43,1.43,0,0,0,1.43,86Zm55.9-2.87H54.47v-4.3A1.43,1.43,0,0,0,53,77.4H7.17a1.43,1.43,0,0,0-1.43,1.43v4.3H2.87V71.67H57.33ZM8.6,41.57A1.44,1.44,0,0,1,10,40.13H50.17a1.44,1.44,0,0,1,1.43,1.43v12.9H48.73V48.73a4.31,4.31,0,0,0-4.3-4.3h-8.6a4.31,4.31,0,0,0-4.3,4.3v5.73H28.67V48.73a4.31,4.31,0,0,0-4.3-4.3h-8.6a4.31,4.31,0,0,0-4.3,4.3v5.73H8.6Zm37.27,12.9H34.4V48.73a1.44,1.44,0,0,1,1.43-1.43h8.6a1.44,1.44,0,0,1,1.43,1.43Zm-20.07,0H14.33V48.73a1.44,1.44,0,0,1,1.43-1.43h8.6a1.44,1.44,0,0,1,1.43,1.43ZM2.87,61.63a4.31,4.31,0,0,1,4.3-4.3H53a4.31,4.31,0,0,1,4.3,4.3V68.8H2.87Z"/><path class="cls-1" d="M84.57,54.47H64.5a1.43,1.43,0,0,0-1.43,1.43V77.4h2.87V68.8h17.2v8.6H86V55.9A1.43,1.43,0,0,0,84.57,54.47ZM65.93,65.93v-8.6h17.2v8.6Z"/><rect class="cls-1" x="71.67" y="60.2" width="5.73" height="2.87"/><path class="cls-1" d="M80.27,44.43a1.44,1.44,0,0,0,1.36-1.89l-2.87-8.6a1.43,1.43,0,0,0-1.36-1H71.67a1.43,1.43,0,0,0-1.36,1l-2.87,8.6a1.43,1.43,0,0,0,1.36,1.89h4.3v4.3H70.23V51.6h8.6V48.73H76v-4.3Zm-7.57-8.6h3.67l1.91,5.73H70.79Z"/><path class="cls-1" d="M85.15,18.76,43.59.12a1.44,1.44,0,0,0-1.17,0L.85,18.76A1.43,1.43,0,0,0,0,20.07v17.2H2.87V21L43,3,83.13,21V37.27H86V20.07A1.43,1.43,0,0,0,85.15,18.76Z"/><path class="cls-1" d="M33,21.5a10,10,0,1,0,19.93-1.67l-2.83.48a7.06,7.06,0,0,1,.1,1.2,7.16,7.16,0,1,1-4.78-6.76l1-2.7A10,10,0,0,0,33,21.5Z"/><path class="cls-1" d="M41.15,19.05l-2,2L42,23.95a1.43,1.43,0,0,0,2,0l10-10-2-2-9,9Z"/></svg>