<svg xmlns="http://www.w3.org/2000/svg" viewBox="0 0 59.89 68.47"><defs><style>.cls-1{fill:#60c6d1;}</style></defs><title>Ресурс 4</title><g id="Слой_2" data-name="Слой 2"><g id="_6" data-name="6"><path class="cls-1" d="M56.58,7.91H53.71V3.63A3.64,3.64,0,0,0,50.08,0H7.65A3.64,3.64,0,0,0,4,3.63V7.91H1.34a1.34,1.34,0,0,0,0,2.68H4v4.28A3.64,3.64,0,0,0,7.65,18.5H8.74v2.82A4.29,4.29,0,0,0,13,25.61a4.24,4.24,0,0,0,1.61-.32v4.22a4.29,4.29,0,0,0,8.58,0v-11h3.42a1.34,1.34,0,0,0,0-2.67h-.82a4.41,4.41,0,0,0,.35-1.72V9.68a4.38,4.38,0,0,0,6.1-4v-3H50.08a1,1,0,0,1,1,1V14.87a1,1,0,0,1-1,1H31.27a1.34,1.34,0,1,0,0,2.67H50.08a3.64,3.64,0,0,0,3.63-3.63V10.59h2.87a.64.64,0,0,1,.64.63V21.35A1.67,1.67,0,0,1,56,22.94L29.4,30.87a2.66,2.66,0,0,0-1.88,2.52v1.4h-4.1a2.88,2.88,0,0,0-2.88,2.88V39a2.89,2.89,0,0,0,2.17,2.79L20.91,59.9a7.8,7.8,0,1,0,15.53,0l-.65-6.46a1.26,1.26,0,0,0-.48-.9,1.3,1.3,0,0,0-1-.3,1.34,1.34,0,0,0-1.2,1.46l.65,6.46a5.13,5.13,0,1,1-10.21,0l1.81-18.25H32l.71,7.16a1.39,1.39,0,0,0,.48.9,1.34,1.34,0,0,0,2.18-1.17l-.68-6.89A2.88,2.88,0,0,0,37.36,39V37.67a2.88,2.88,0,0,0-2.88-2.88H30.19l0-1.35,26.63-7.93a4.37,4.37,0,0,0,3.1-4.16V11.22A3.31,3.31,0,0,0,56.58,7.91Zm-36,10.59v11a1.61,1.61,0,1,1-3.22,0v-11ZM13,22.94a1.62,1.62,0,0,1-1.61-1.62V18.5h3.22v2.82A1.62,1.62,0,0,1,13,22.94ZM6.69,3.63a1,1,0,0,1,1-1h22v3a1.72,1.72,0,0,1-3.43,0,1.34,1.34,0,1,0-2.68,0v8.47a1.71,1.71,0,0,1-1.71,1.72H7.65a1,1,0,0,1-1-1Zm28,35.4a.22.22,0,0,1-.21.21H23.42a.22.22,0,0,1-.2-.21V37.67a.22.22,0,0,1,.2-.21H34.48a.22.22,0,0,1,.21.21Z"/></g></g></svg>