<svg xmlns="http://www.w3.org/2000/svg" viewBox="0 0 65.34 65.34"><defs><style>.cls-1{fill:#60c6d1;}</style></defs><title>Ресурс 5</title><g id="Слой_2" data-name="Слой 2"><g id="_6" data-name="6"><path class="cls-1" d="M59.9,61H5.45A1,1,0,0,1,4.36,59.9V1.09A1,1,0,0,1,5.45,0H59.9A1,1,0,0,1,61,1.09V59.9A1,1,0,0,1,59.9,61ZM6.53,58.81H58.81V2.18H6.53Z"/><path class="cls-1" d="M64.25,65.34H1.09A1,1,0,0,1,0,64.25V59.9a1,1,0,0,1,1.09-1.09H64.25a1,1,0,0,1,1.09,1.09v4.35A1,1,0,0,1,64.25,65.34ZM2.18,63.16h61V61h-61Z"/><path class="cls-1" d="M20.69,14.16H12a1,1,0,0,1-1.09-1.09V6.53A1,1,0,0,1,12,5.45h8.71a1,1,0,0,1,1.09,1.08v6.54A1,1,0,0,1,20.69,14.16ZM13.07,12H19.6V7.62H13.07Z"/><path class="cls-1" d="M20.69,26.14H12a1,1,0,0,1-1.09-1.09V18.51A1,1,0,0,1,12,17.42h8.71a1,1,0,0,1,1.09,1.09v6.54A1,1,0,0,1,20.69,26.14ZM13.07,24H19.6V19.6H13.07Z"/><path class="cls-1" d="M37,26.14H28.31a1,1,0,0,1-1.08-1.09V18.51a1,1,0,0,1,1.08-1.09H37a1,1,0,0,1,1.09,1.09v6.54A1,1,0,0,1,37,26.14ZM29.4,24h6.54V19.6H29.4Z"/><path class="cls-1" d="M53.36,26.14H44.65a1,1,0,0,1-1.09-1.09V18.51a1,1,0,0,1,1.09-1.09h8.71a1,1,0,0,1,1.09,1.09v6.54A1,1,0,0,1,53.36,26.14ZM45.74,24h6.53V19.6H45.74Z"/><path class="cls-1" d="M37,38.12H28.31A1,1,0,0,1,27.23,37V30.49a1,1,0,0,1,1.08-1.09H37a1,1,0,0,1,1.09,1.09V37A1,1,0,0,1,37,38.12ZM29.4,35.94h6.54V31.58H29.4Z"/><path class="cls-1" d="M53.36,38.12H44.65A1,1,0,0,1,43.56,37V30.49a1,1,0,0,1,1.09-1.09h8.71a1,1,0,0,1,1.09,1.09V37A1,1,0,0,1,53.36,38.12Zm-7.62-2.18h6.53V31.58H45.74Z"/><path class="cls-1" d="M20.69,38.12H12A1,1,0,0,1,10.89,37V30.49A1,1,0,0,1,12,29.4h8.71a1,1,0,0,1,1.09,1.09V37A1,1,0,0,1,20.69,38.12Zm-7.62-2.18H19.6V31.58H13.07Z"/><path class="cls-1" d="M37,14.16H28.31a1,1,0,0,1-1.08-1.09V6.53a1,1,0,0,1,1.08-1.08H37a1,1,0,0,1,1.09,1.08v6.54A1,1,0,0,1,37,14.16ZM29.4,12h6.54V7.62H29.4Z"/><path class="cls-1" d="M53.36,14.16H44.65a1,1,0,0,1-1.09-1.09V6.53a1,1,0,0,1,1.09-1.08h8.71a1,1,0,0,1,1.09,1.08v6.54A1,1,0,0,1,53.36,14.16ZM45.74,12h6.53V7.62H45.74Z"/><path class="cls-1" d="M41.38,61H32.67a1,1,0,0,1-1.09-1.08V46.83a1,1,0,0,1,1.09-1.09h8.71a1,1,0,0,1,1.09,1.09V59.9A1,1,0,0,1,41.38,61Zm-7.62-2.17h6.53V47.92H33.76Z"/><path class="cls-1" d="M32.67,61H24a1,1,0,0,1-1.09-1.08V46.83A1,1,0,0,1,24,45.74h8.71a1,1,0,0,1,1.09,1.09V59.9A1,1,0,0,1,32.67,61Zm-7.62-2.17h6.53V47.92H25.05Z"/><path class="cls-1" d="M39.2,43.56H26.14a1.09,1.09,0,1,1,0-2.18H39.2a1.09,1.09,0,0,1,0,2.18Z"/></g></g></svg>