<svg id="Слой_1" data-name="Слой 1" xmlns="http://www.w3.org/2000/svg" viewBox="0 0 72.97 91"><defs><style>.cls-1{fill:#60c6d1;}</style></defs><title>Безымянный-5</title><path class="cls-1" d="M12.45,32.36A1.33,1.33,0,0,0,14,31.22a22.74,22.74,0,0,1,45.07,0,1.33,1.33,0,0,0,1.32,1.16h.18a1.33,1.33,0,0,0,1.14-1.5,25.41,25.41,0,0,0-50.36,0A1.33,1.33,0,0,0,12.45,32.36Z"/><path class="cls-1" d="M61.7,37.43a1.33,1.33,0,0,0-2.65-.33,22.74,22.74,0,0,1-45.13,0,1.33,1.33,0,0,0-2.65.33,25.41,25.41,0,0,0,50.43,0Z"/><path class="cls-1" d="M72.64,76.27l-12-18.79a5.72,5.72,0,0,0,4.47-6.66,3.07,3.07,0,0,1,1.64-3.3,5.72,5.72,0,0,0,2.31-8.14,3.07,3.07,0,0,1,.34-3.67,5.72,5.72,0,0,0-.78-8.42,3.07,3.07,0,0,1-1-3.54,5.72,5.72,0,0,0-3.77-7.57,3.07,3.07,0,0,1-2.22-2.94,5.72,5.72,0,0,0-6.25-5.7A3.07,3.07,0,0,1,52.23,5.6a5.72,5.72,0,0,0-7.89-3.06,3.07,3.07,0,0,1-3.62-.68,5.72,5.72,0,0,0-8.46,0,3.07,3.07,0,0,1-3.62.68A5.72,5.72,0,0,0,20.75,5.6a3.07,3.07,0,0,1-3.13,1.94,5.72,5.72,0,0,0-6.25,5.7,3.07,3.07,0,0,1-2.22,2.94,5.72,5.72,0,0,0-3.77,7.57,3.07,3.07,0,0,1-1,3.54,5.72,5.72,0,0,0-.78,8.42,3.07,3.07,0,0,1,.34,3.67,5.72,5.72,0,0,0,2.31,8.14,3.07,3.07,0,0,1,1.64,3.3,5.72,5.72,0,0,0,4.47,6.66L.34,76.27a2.14,2.14,0,0,0,2,3.28l11.72-1,4,11.07A2.12,2.12,0,0,0,19.8,91H20a2.12,2.12,0,0,0,1.8-1L36.49,67.11,51.13,90a2.12,2.12,0,0,0,1.8,1h.24a2.12,2.12,0,0,0,1.77-1.4l4-11.07,11.72,1a2.14,2.14,0,0,0,2-3.28ZM3.16,76.8,14.87,58.48a3,3,0,0,1,.83,1.58,5.74,5.74,0,0,0,1.6,3L9,76.29Zm13.76,1.84-.51-1.41a2.14,2.14,0,0,0-2.2-1.41L12.3,76l7.28-11.54a5.73,5.73,0,0,0,3.31.06,3.07,3.07,0,0,1,2.64.48Zm3.25,9-2.11-5.85,9.3-14.74A5.71,5.71,0,0,0,32.5,68.4ZM37.32,64.18l-.26,0c-.19,0-.38,0-.57,0s-.38,0-.57,0l-.26,0A5.69,5.69,0,0,0,33,65.27a3.06,3.06,0,0,1-4.44-.83c-.1-.16-.2-.31-.31-.45l-.05-.06a5.75,5.75,0,0,0-6.07-2,3.06,3.06,0,0,1-3.84-2.38,5.75,5.75,0,0,0-3.16-4.11,1.33,1.33,0,0,0-.26-.12,5.66,5.66,0,0,0-1.68-.43,3.06,3.06,0,0,1-2.72-3.61,5.75,5.75,0,0,0-3.07-6.17,3.06,3.06,0,0,1-1.24-4.35,5.75,5.75,0,0,0-.64-6.87A3.06,3.06,0,0,1,6,29.42a5.75,5.75,0,0,0,1.89-6.63,3.06,3.06,0,0,1,2-4A5.75,5.75,0,0,0,14,13.24a3.06,3.06,0,0,1,3.34-3,5.75,5.75,0,0,0,5.86-3.63,3.06,3.06,0,0,1,4.21-1.63,5.75,5.75,0,0,0,6.78-1.27,3.06,3.06,0,0,1,4.52,0,5.75,5.75,0,0,0,6.78,1.27,3.06,3.06,0,0,1,4.21,1.63,5.75,5.75,0,0,0,5.86,3.63,3.06,3.06,0,0,1,3.34,3,5.75,5.75,0,0,0,4.16,5.5,3.06,3.06,0,0,1,2,4A5.75,5.75,0,0,0,67,29.42a3.06,3.06,0,0,1,.42,4.5,5.75,5.75,0,0,0-.64,6.87,3.06,3.06,0,0,1-1.24,4.35,5.75,5.75,0,0,0-3.07,6.17,3.06,3.06,0,0,1-2.72,3.61,5.67,5.67,0,0,0-1.68.43,1.33,1.33,0,0,0-.25.11,5.75,5.75,0,0,0-3.16,4.11,3.06,3.06,0,0,1-3.84,2.38,5.75,5.75,0,0,0-6.07,2l-.05.06c-.11.14-.22.29-.31.45a3.06,3.06,0,0,1-4.44.83A5.69,5.69,0,0,0,37.32,64.18ZM52.8,87.67,40.48,68.4a5.7,5.7,0,0,0,5.13-1.32l9.3,14.74Zm6-11.85a2.14,2.14,0,0,0-2.2,1.41L56,78.64,47.44,65a3.07,3.07,0,0,1,2.64-.48,5.74,5.74,0,0,0,3.31-.06L60.67,76Zm5.26.46L55.67,63.07a5.74,5.74,0,0,0,1.6-3,3,3,0,0,1,.83-1.58L69.81,76.8Z"/><path class="cls-1" d="M42.36,35.06a5.8,5.8,0,0,0-3.11-3.17A5.7,5.7,0,0,0,37,31.44a7.26,7.26,0,0,0-3.36,1l-.81.43,1-5.68h6.85a1.91,1.91,0,0,0,1.24-.33,1,1,0,0,0,.36-.81c0-.55-.19-1.18-1.68-1.18h-7.2a1.89,1.89,0,0,0-1.37.4,2.73,2.73,0,0,0-.59,1.47l-1.15,6.53c-.11.65-.14.82-.14.87a1,1,0,0,0,.38.76,1.25,1.25,0,0,0,.88.36,2.4,2.4,0,0,0,1.29-.63,15.07,15.07,0,0,1,1.5-1,4,4,0,0,1,1.9-.34,3.81,3.81,0,0,1,2,.52,3.67,3.67,0,0,1,1.41,1.57A5.42,5.42,0,0,1,40,37.76a5.69,5.69,0,0,1-.47,2.35,4,4,0,0,1-1.37,1.68,3.61,3.61,0,0,1-2.09.62,3.89,3.89,0,0,1-2.33-.76,5.06,5.06,0,0,1-1.62-2.07c-.4-1-.93-1.06-1.3-1.06a1,1,0,0,0-.79.34,1,1,0,0,0-.32.71,4,4,0,0,0,.58,1.83,5.19,5.19,0,0,0,2,1.9,7.31,7.31,0,0,0,3.73.84,7.22,7.22,0,0,0,3.63-.9A6.13,6.13,0,0,0,42,40.83a7,7,0,0,0,.83-3.39A6.19,6.19,0,0,0,42.36,35.06Z"/></svg>