<svg xmlns="http://www.w3.org/2000/svg" viewBox="0 0 72.97 91"><defs><style>.cls-1{fill:#60c6d1;}</style></defs><title>Ресурс 4</title><g id="Слой_2" data-name="Слой 2"><g id="_2" data-name="2"><path class="cls-1" d="M12.45,32.36A1.33,1.33,0,0,0,14,31.22a22.74,22.74,0,0,1,45.07,0,1.33,1.33,0,0,0,1.32,1.15h.18a1.35,1.35,0,0,0,1.15-1.5,25.41,25.41,0,0,0-50.36,0A1.32,1.32,0,0,0,12.45,32.36Z"/><path class="cls-1" d="M61.7,37.43a1.34,1.34,0,1,0-2.65-.33,22.74,22.74,0,0,1-45.13,0,1.34,1.34,0,0,0-2.65.33,25.41,25.41,0,0,0,50.43,0Z"/><path class="cls-1" d="M72.64,76.27l-12-18.79a5.7,5.7,0,0,0,4.46-6.66,3.07,3.07,0,0,1,1.65-3.29,5.78,5.78,0,0,0,3-3.56,5.72,5.72,0,0,0-.64-4.58,3.09,3.09,0,0,1,.34-3.67,5.72,5.72,0,0,0-.78-8.42,3.09,3.09,0,0,1-1-3.55,5.71,5.71,0,0,0-3.77-7.57,3.07,3.07,0,0,1-2.22-2.94,5.73,5.73,0,0,0-6.25-5.7A3.06,3.06,0,0,1,52.23,5.6a5.73,5.73,0,0,0-7.89-3.06,3.06,3.06,0,0,1-3.62-.67,5.72,5.72,0,0,0-8.46,0,3.08,3.08,0,0,1-3.63.67A5.72,5.72,0,0,0,20.75,5.6a3.06,3.06,0,0,1-3.14,1.94,5.73,5.73,0,0,0-6.25,5.7,3.06,3.06,0,0,1-2.22,2.94,5.71,5.71,0,0,0-3.77,7.57,3.07,3.07,0,0,1-1,3.55,5.72,5.72,0,0,0-.78,8.42,3.06,3.06,0,0,1,.34,3.67,5.72,5.72,0,0,0,2.32,8.14,3.07,3.07,0,0,1,1.64,3.29,5.72,5.72,0,0,0,4.47,6.66L.34,76.27a2.14,2.14,0,0,0,2,3.28l11.72-1,4,11.08A2.15,2.15,0,0,0,19.8,91h.25a2.09,2.09,0,0,0,1.79-1l14.65-22.9L51.13,90a2.11,2.11,0,0,0,1.8,1h.24a2.13,2.13,0,0,0,1.77-1.4l4-11.08,11.72,1a2.15,2.15,0,0,0,2-3.28ZM3.16,76.8,14.87,58.48a3,3,0,0,1,.83,1.58,5.75,5.75,0,0,0,1.6,3L9,76.29Zm13.76,1.84-.5-1.41a2.15,2.15,0,0,0-2.2-1.41L12.3,76l7.28-11.54a5.74,5.74,0,0,0,3.31.06,3.08,3.08,0,0,1,2.64.48Zm3.26,9-2.11-5.85,9.3-14.74a5.63,5.63,0,0,0,2.77,1.37,5.68,5.68,0,0,0,2.36,0ZM37.32,64.18a1.15,1.15,0,0,0-.26,0,5.43,5.43,0,0,0-1.14,0,1.09,1.09,0,0,0-.26,0A5.76,5.76,0,0,0,33,65.27a3.05,3.05,0,0,1-2.41.56,3,3,0,0,1-2-1.39,5.15,5.15,0,0,0-.32-.45l-.05-.07a5.75,5.75,0,0,0-6.07-2,3.06,3.06,0,0,1-3.84-2.38,5.75,5.75,0,0,0-3.16-4.11,1,1,0,0,0-.26-.11,5.54,5.54,0,0,0-1.68-.43,3.06,3.06,0,0,1-2.72-3.61,5.74,5.74,0,0,0-3.08-6.17,3.07,3.07,0,0,1-1.23-4.35,5.74,5.74,0,0,0-.64-6.87A3.07,3.07,0,0,1,6,29.42a5.75,5.75,0,0,0,1.89-6.63,3.06,3.06,0,0,1,2-4.05A5.74,5.74,0,0,0,14,13.24a3.07,3.07,0,0,1,3.34-3.05,5.73,5.73,0,0,0,5.86-3.63A3,3,0,0,1,25,4.82a3,3,0,0,1,2.47.11,5.76,5.76,0,0,0,6.78-1.27,3.07,3.07,0,0,1,4.52,0,5.75,5.75,0,0,0,6.78,1.27,3.07,3.07,0,0,1,4.21,1.63,5.73,5.73,0,0,0,5.87,3.63A3.07,3.07,0,0,1,59,13.24a5.74,5.74,0,0,0,4.15,5.5,3.07,3.07,0,0,1,2,4.05A5.74,5.74,0,0,0,67,29.42a3,3,0,0,1,.42,4.5,5.77,5.77,0,0,0-.64,6.87,3.06,3.06,0,0,1,.35,2.45,3,3,0,0,1-1.58,1.9,5.75,5.75,0,0,0-3.08,6.17,3,3,0,0,1-2.72,3.61,5.62,5.62,0,0,0-1.68.43.8.8,0,0,0-.25.11,5.74,5.74,0,0,0-3.17,4.11,3,3,0,0,1-1.39,2,3.1,3.1,0,0,1-2.45.34,5.76,5.76,0,0,0-6.07,2l-.05.07a5.09,5.09,0,0,0-.31.45,3.07,3.07,0,0,1-4.44.83A5.81,5.81,0,0,0,37.32,64.18ZM52.8,87.67,40.48,68.4a5.64,5.64,0,0,0,1.3.15,5.33,5.33,0,0,0,1-.1,5.7,5.7,0,0,0,2.78-1.37L54.9,81.82Zm6-11.85a2.14,2.14,0,0,0-2.19,1.41l-.51,1.41L47.44,65a3.08,3.08,0,0,1,2.64-.48,5.74,5.74,0,0,0,3.31-.06L60.67,76Zm5.26.47L55.67,63.07a5.68,5.68,0,0,0,1.6-3,3.07,3.07,0,0,1,.83-1.58L69.81,76.8Z"/><path class="cls-1" d="M42.36,35.06a5.78,5.78,0,0,0-3.11-3.16A5.55,5.55,0,0,0,37,31.44a7.28,7.28,0,0,0-3.36,1l-.81.44,1-5.69h6.85a1.92,1.92,0,0,0,1.24-.33,1,1,0,0,0,.36-.81c0-.54-.19-1.17-1.68-1.17h-7.2a1.92,1.92,0,0,0-1.37.39,2.73,2.73,0,0,0-.59,1.47l-1.14,6.53c-.12.66-.14.83-.15.87a1.07,1.07,0,0,0,.38.76,1.26,1.26,0,0,0,.88.36,2.47,2.47,0,0,0,1.3-.62,13.29,13.29,0,0,1,1.5-1,3.92,3.92,0,0,1,1.89-.34,3.78,3.78,0,0,1,2,.52,3.64,3.64,0,0,1,1.41,1.56A5.42,5.42,0,0,1,40,37.76a5.7,5.7,0,0,1-.47,2.35,4,4,0,0,1-1.37,1.68,3.63,3.63,0,0,1-2.09.62,3.88,3.88,0,0,1-2.34-.76,4.94,4.94,0,0,1-1.61-2.06c-.41-1-.94-1.06-1.3-1.06a1.06,1.06,0,0,0-.79.33,1.09,1.09,0,0,0-.32.71,4,4,0,0,0,.58,1.83,5.14,5.14,0,0,0,2,1.89,7.26,7.26,0,0,0,3.73.84,7.16,7.16,0,0,0,3.63-.9A6.13,6.13,0,0,0,42,40.83a7,7,0,0,0,.83-3.39A6.12,6.12,0,0,0,42.36,35.06Z"/></g></g></svg>