<svg xmlns="http://www.w3.org/2000/svg" viewBox="0 0 74.17 63.02"><defs><style>.cls-1{fill:#60c6d1;}</style></defs><title>Ресурс 2</title><g id="Слой_2" data-name="Слой 2"><g id="_6" data-name="6"><path class="cls-1" d="M73.09,11.88A1.09,1.09,0,0,0,72,13V59.4H69.83v-54a1.08,1.08,0,0,0-1.09-1.08H5.43A1.08,1.08,0,0,0,4.35,5.43v54H2.17V54.69a1.09,1.09,0,1,0-2.17,0v5.79a1.09,1.09,0,0,0,1.09,1.09H4.35v.36A1.08,1.08,0,0,0,5.43,63H16.48a1.09,1.09,0,0,0,1.08-1.23l0-.22H51a1.09,1.09,0,1,0,0-2.17H17.25L17,57.22H57.22l-.29,2.18h-1.3a1.09,1.09,0,1,0,0,2.17h1l0,.22A1.09,1.09,0,0,0,57.69,63h11a1.09,1.09,0,0,0,1.09-1.09v-.36h3.26a1.08,1.08,0,0,0,1.08-1.09V13a1.08,1.08,0,0,0-1.08-1.09ZM60.77,35.76a1.09,1.09,0,0,1,0-2.17h6.89v2.17Zm-3-29.24,4.76,19.39a1.09,1.09,0,0,0,1.06.83l.26,0a1.09,1.09,0,0,0,.79-1.32L60,6.52h3.12L64,17.26a1.08,1.08,0,0,0,1.08,1h.09a1.09,1.09,0,0,0,1-1.18L65.29,6.52h2.37V31.41h-5.9L55.64,6.52Zm-48.87,0L8,17.07a1.09,1.09,0,0,0,1,1.18h.1a1.09,1.09,0,0,0,1.08-1l.93-10.74h3.12L9.55,25.39a1.09,1.09,0,0,0,1.06,1.35,1.08,1.08,0,0,0,1.05-.83L16.43,6.52h2.1L12.42,31.41H6.52V6.52ZM13.4,35.76H6.52V33.59H13.4a1.09,1.09,0,1,1,0,2.17ZM6.52,60.85V37.93h5.7l3,22.92Zm7.87-23.07a3.26,3.26,0,0,0,.21-6.14L20.77,6.52H36V55.05H16.67ZM38.17,55.05V6.52H53.4l6.17,25.12a3.26,3.26,0,0,0,.21,6.14L57.5,55.05Zm29.49,5.8H58.93l3-22.92h5.7Z"/><path class="cls-1" d="M73.09,0h-72A1.09,1.09,0,0,0,0,1.09v49a1.09,1.09,0,1,0,2.17,0V2.17H72V8.33a1.09,1.09,0,1,0,2.17,0V1.09A1.08,1.08,0,0,0,73.09,0Z"/></g></g></svg>