<svg id="Слой_1" data-name="Слой 1" xmlns="http://www.w3.org/2000/svg" viewBox="0 0 71.47 87.15"><defs><style>.cls-1{fill:#60c6d1;}</style></defs><title>Безымянный-5</title><path class="cls-1" d="M63.54,29l3.65-3.67A5.1,5.1,0,0,0,60,18.09L56.05,22a35.75,35.75,0,0,0-13.62-5.71l0-5.08h3.4a1.7,1.7,0,0,0,1.7-1.71V5.09A5.11,5.11,0,0,0,42.38,0L28.77,0a5.11,5.11,0,0,0-5.09,5.12V9.59a1.7,1.7,0,0,0,1.71,1.7h3.4l0,5.08a35.73,35.73,0,0,0-13.59,5.8l-3.92-3.9a5.1,5.1,0,1,0-7.2,7.24l3.67,3.65A35.74,35.74,0,1,0,63.54,29Zm-1.18-8.47a1.7,1.7,0,0,1,2.41,2.4l-3.51,3.53q-1.19-1.22-2.49-2.32ZM27.09,7.88V5.15a1.7,1.7,0,0,1,1.7-1.71l13.61,0A1.7,1.7,0,0,1,44.1,5.1V7.82ZM39,11.24v4.58a36.68,36.68,0,0,0-6.81,0V11.26ZM6.51,23.07a1.7,1.7,0,1,1,2.4-2.41l3.61,3.59Q11.23,25.35,10,26.58ZM35.84,83.74a32.34,32.34,0,0,1-5.06-64.29,32.91,32.91,0,0,1,9.7,0,32.34,32.34,0,0,1-4.65,64.32Z"/><path class="cls-1" d="M35.71,56.52a5.1,5.1,0,0,0,1.7-9.92V34.4a1.7,1.7,0,0,0-3.4,0V46.6a5.1,5.1,0,0,0,1.7,9.92Zm0-6.81a1.7,1.7,0,1,1-1.7,1.7A1.7,1.7,0,0,1,35.71,49.71Z"/><path class="cls-1" d="M53.84,33.46l-.08-.09-.1-.09a25.62,25.62,0,0,0-10.73-6.35,1.7,1.7,0,0,0-1,3.26,22.18,22.18,0,0,1,8.13,4.43l-1.15,1.15a1.7,1.7,0,1,0,2.41,2.41L52.5,37a21.91,21.91,0,0,1,5.26,12.68H56.13a1.7,1.7,0,1,0,0,3.4h1.64A21.91,21.91,0,0,1,52.5,65.8l-1.15-1.15a1.7,1.7,0,0,0-2.41,2.41l1.15,1.15a21.92,21.92,0,0,1-12.68,5.26V71.83a1.7,1.7,0,0,0-3.4,0v1.64a21.92,21.92,0,0,1-12.68-5.26l1.15-1.15a1.7,1.7,0,0,0-2.41-2.41L18.92,65.8a21.92,21.92,0,0,1-5.26-12.68h1.64a1.7,1.7,0,0,0,0-3.4H13.65A21.92,21.92,0,0,1,18.92,37l1.15,1.15a1.7,1.7,0,0,0,2.41-2.41l-1.15-1.15a22.18,22.18,0,0,1,8.13-4.43,1.7,1.7,0,0,0-1-3.26,25.61,25.61,0,0,0-10.72,6.35l-.1.09-.08.09a25.48,25.48,0,0,0,0,35.91l.08.09.09.08a25.48,25.48,0,0,0,35.91,0l.09-.08.08-.09a25.48,25.48,0,0,0,0-35.91Z"/><circle class="cls-1" cx="35.71" cy="27.59" r="1.7"/></svg>