<?xml version="1.0" encoding="utf-8"?>
<!-- Generator: Adobe Illustrator 22.0.1, SVG Export Plug-In . SVG Version: 6.00 Build 0)  -->
<svg version="1.1" id="Слой_1" xmlns="http://www.w3.org/2000/svg" xmlns:xlink="http://www.w3.org/1999/xlink" x="0px" y="0px"
	 viewBox="0 0 71.6 56.8" style="enable-background:new 0 0 71.6 56.8;" xml:space="preserve">
<style type="text/css">
	.st0{fill:#18AEA1;}
	.st1{fill:#12100E;}
	.st2{stroke:#000000;stroke-width:0.2;stroke-miterlimit:10;}
</style>
<title>Безымянный-4</title>
<path class="st0" d="M57.7,38.7c-7.6,0-13.8-6.2-13.9-13.9C43.8,17.5,56.4,1,57,0.4c0.4-0.4,1-0.5,1.4-0.1c0,0,0.1,0.1,0.1,0.1
	C59,1.1,71.6,17.5,71.6,24.9C71.6,32.6,65.4,38.8,57.7,38.7C57.7,38.7,57.7,38.7,57.7,38.7z M57.7,2.5C55,6.2,45.8,19.1,45.8,24.9
	c0.2,6.6,5.7,11.8,12.3,11.6c6.3-0.2,11.4-5.3,11.6-11.6C69.6,19.1,60.4,6.2,57.7,2.5L57.7,2.5z"/>
<path class="st0" d="M58.5,35.1c-0.4,0-0.8-0.3-0.9-0.7c-0.1-0.5,0.1-1,0.6-1.2C62,32,64.9,29,66,25.2c0.1-0.5,0.6-0.8,1.2-0.7
	c0,0,0,0,0,0c0.5,0.2,0.8,0.7,0.7,1.2c-1.3,4.5-4.7,8-9.1,9.4C58.6,35.1,58.5,35.1,58.5,35.1L58.5,35.1z"/>
<polygon class="st1" points="29.6,1.8 27.7,1.8 27.8,18.2 4.3,18.3 4.2,1.9 2.3,1.9 2.4,36.9 4.4,36.9 4.3,20.2 27.8,20.1 
	27.9,36.8 29.8,36.8 "/>
<path class="st1" d="M41.9,40.3h-5.8l3-3.3c0.6-0.6,1-1.2,1.4-1.9c0.3-0.5,0.5-1.2,0.5-1.8c0-0.9-0.3-1.7-1-2.2
	c-0.7-0.5-1.6-0.8-2.5-0.8c-0.7,0-1.4,0.1-2,0.4C35,31.1,34.5,31.5,34,32l-0.3,0.3l0.9,1.1l0.4-0.4c0.4-0.4,0.8-0.7,1.3-0.9
	c0.4-0.2,0.9-0.3,1.4-0.3c0.5-0.1,1.1,0.1,1.5,0.4c0.3,0.3,0.5,0.7,0.5,1.1c0,0.5-0.3,1.3-1.5,2.7l-4.2,4.5v0.7l0,0v0.5h8L41.9,40.3
	z"/>
<path class="st2" d="M2.5,48.5c0.6,0,1.3,0.2,1.8,0.6c0,0,0,0.1,0,0.1c0,0,0,0,0,0l0,0c0,0-0.1,0-0.1,0c0,0,0,0,0,0
	c-0.5-0.4-1-0.6-1.6-0.5c-1.2-0.1-2.3,0.9-2.3,2.1c0,0,0,0.1,0,0.1c0,1.2,1,2.2,2.3,2.2c0,0,0,0,0,0c0.6,0,1.2-0.3,1.7-0.7
	c0,0,0.1,0,0.1,0l0.1,0.1c0,0,0,0,0,0.1c-0.5,0.5-1.2,0.8-1.9,0.8c-1.4,0-2.5-1.1-2.5-2.4c0,0,0,0,0,0C0,49.6,1.1,48.5,2.5,48.5
	C2.4,48.5,2.4,48.5,2.5,48.5z"/>
<path class="st2" d="M5.9,45.2C5.9,45.2,5.9,45.1,5.9,45.2C5.9,45.1,5.9,45.1,5.9,45.2L6,45.1c0,0,0.1,0,0.1,0.1l0,0v7.9
	c0,0,0,0.1-0.1,0.1c0,0,0,0,0,0l0,0c0,0-0.1,0-0.1-0.1l0,0L5.9,45.2z"/>
<path class="st2" d="M9.9,53.1c0.6,0,1.1-0.2,1.6-0.5c0,0,0.1,0,0.1,0v0.1c0,0,0,0.1,0,0.1c-0.5,0.4-1.1,0.5-1.7,0.5
	c-1.3,0-2.3-1-2.3-2.3c0-0.1,0-0.1,0-0.2c-0.1-1.2,0.8-2.3,2.1-2.4c0.1,0,0.1,0,0.2,0c1.1-0.1,2.1,0.7,2.1,1.8c0,0.1,0,0.2,0,0.3
	c0,0.1,0,0.2,0,0.3c0,0,0,0-0.1,0h-4C7.8,52,8.6,53,9.7,53.1C9.8,53.1,9.8,53.1,9.9,53.1z M11.8,50.8c0-0.1,0-0.1,0-0.2
	c0-1-0.7-1.9-1.7-1.9c-0.1,0-0.1,0-0.2,0c-1.1,0-2,0.8-2.1,1.9c0,0.1,0,0.1,0,0.2L11.8,50.8z"/>
<path class="st2" d="M15.1,50.2c0.5,0,0.9,0.1,1.4,0.3V50c0-0.9-0.3-1.3-1.3-1.3c-0.5,0-1,0.1-1.4,0.3c-0.1,0-0.1,0-0.1,0v-0.1
	c0-0.1,0-0.1,0-0.1c0.5-0.3,1-0.4,1.5-0.4c1.1,0,1.5,0.5,1.5,1.5v3.1c0,0,0,0.1-0.1,0.1h0l0,0c0,0-0.1,0-0.1-0.1l0,0v-0.5
	c-0.5,0.4-1.1,0.7-1.8,0.7c-0.8,0.1-1.6-0.6-1.6-1.4c0-0.1,0-0.1,0-0.2C13.1,50.9,13.9,50.2,15.1,50.2z M14.7,53.1
	c0.7,0,1.3-0.3,1.8-0.8v-1.7c-0.4-0.2-0.9-0.2-1.4-0.3c-1.1,0-1.8,0.6-1.8,1.4c0,0.7,0.5,1.3,1.2,1.4C14.6,53.1,14.6,53.1,14.7,53.1
	z"/>
<path class="st2" d="M18.5,48.7C18.5,48.6,18.5,48.6,18.5,48.7L18.5,48.7L18.5,48.7c0.1-0.1,0.2,0,0.2,0l0,0v0.6
	c0.5-0.5,1.1-0.8,1.8-0.8c1.3,0,1.9,0.8,1.9,2.2v2.5c0,0,0,0.1-0.1,0.1h0l0,0c0,0-0.1,0-0.1-0.1l0,0v-2.5c0-1.3-0.6-1.9-1.7-1.9
	c-0.7,0-1.4,0.4-1.8,1v3.5c0,0,0,0.1-0.1,0.1h0l0,0c0,0-0.1,0-0.1-0.1l0,0L18.5,48.7z"/>
<path class="st2" d="M24.1,46c0-0.1,0.1-0.2,0.2-0.2c0,0,0,0,0,0c0.1,0,0.2,0.1,0.2,0.2c0,0.1-0.1,0.2-0.2,0.2S24.1,46.1,24.1,46z
	 M24.2,48.7C24.2,48.7,24.3,48.6,24.2,48.7L24.2,48.7L24.2,48.7c0.1-0.1,0.2,0,0.2,0l0,0v4.5c0,0,0,0.1-0.1,0.1h0l0,0
	c0,0-0.1,0-0.1-0.1l0,0V48.7z"/>
<path class="st2" d="M26.3,48.7C26.3,48.6,26.3,48.6,26.3,48.7L26.3,48.7L26.3,48.7c0.1-0.1,0.2,0,0.2,0l0,0v0.6
	c0.5-0.5,1.1-0.8,1.8-0.8c1.3,0,1.9,0.8,1.9,2.2v2.5c0,0,0,0.1-0.1,0.1h0l0,0c0,0-0.1,0-0.1-0.1l0,0v-2.5c0-1.3-0.6-1.9-1.7-1.9
	c-0.7,0-1.4,0.4-1.8,1v3.5c0,0,0,0.1-0.1,0.1h0l0,0c0,0-0.1,0-0.1-0.1l0,0L26.3,48.7z"/>
<path class="st2" d="M32.3,51.5c-0.2-0.3-0.3-0.8-0.3-1.2c0-1,0.8-1.8,1.8-1.9c0,0,0.1,0,0.1,0h2c0,0,0.1,0,0.1,0.1v0l0,0
	c0,0,0,0.1-0.1,0.1h0h-1.1c0.6,0.3,1,1,0.9,1.7c0,1-0.8,1.8-1.8,1.9c0,0-0.1,0-0.1,0c-0.5,0-1.1-0.2-1.4-0.5c-0.4,0.2-0.7,0.6-0.7,1
	c0,0.4,0.3,0.8,0.7,0.8c0,0,0,0,0,0h2.1c1,0,1.7,0.4,1.7,1.5c-0.1,1.2-1.1,2-2.3,1.9c0,0-0.1,0-0.1,0c-1.1,0.2-2.1-0.6-2.3-1.7
	c0,0,0-0.1,0-0.1c0-0.6,0.3-1.1,0.8-1.3c-0.5,0-1-0.5-1-1C31.6,52.2,31.9,51.7,32.3,51.5z M34,56.6c1.3,0,2.1-0.8,2.1-1.7
	s-0.6-1.3-1.5-1.3H33c-0.6,0.2-1,0.7-1.1,1.4C31.9,55.7,32.6,56.6,34,56.6z M35.5,50.3c0.1-0.8-0.5-1.6-1.3-1.7h-0.3
	c-0.9,0-1.7,0.6-1.7,1.5c0,0,0,0.1,0,0.1c-0.1,0.9,0.6,1.6,1.4,1.7c0.1,0,0.2,0,0.3,0C34.8,52,35.5,51.3,35.5,50.3
	C35.6,50.4,35.6,50.4,35.5,50.3L35.5,50.3z"/>
<path class="st2" d="M39.6,52.7L39.6,52.7c0.1-0.1,0.1-0.1,0.2-0.1c0.4,0.3,0.9,0.5,1.4,0.5c0.8,0,1.5-0.5,1.5-1.1s-0.7-0.9-1.6-1.1
	c-1-0.3-1.5-0.6-1.5-1.3s0.5-1.2,1.6-1.2c0.5,0,0.9,0.1,1.3,0.4c0,0,0,0.1,0,0.1c0,0,0,0,0,0V49c0,0,0,0.1-0.1,0
	c-0.4-0.2-0.8-0.3-1.2-0.3c-1,0-1.3,0.5-1.3,1s0.5,0.8,1.3,1s1.8,0.5,1.8,1.3s-0.8,1.3-1.7,1.3C40.6,53.3,40.1,53.1,39.6,52.7
	C39.7,52.8,39.6,52.8,39.6,52.7z"/>
<path class="st2" d="M46.2,53.1c0.6,0,1.1-0.2,1.6-0.5c0,0,0.1,0,0.1,0c0,0,0,0,0,0v0.1c0,0,0,0.1,0,0.1c-0.5,0.4-1.1,0.5-1.7,0.5
	c-1.3,0-2.3-1-2.3-2.3c0-0.1,0-0.1,0-0.2c-0.1-1.2,0.8-2.3,2.1-2.4c0.1,0,0.1,0,0.2,0c1.1-0.1,2,0.8,2.1,1.9c0,0.1,0,0.2,0,0.2
	c0,0.1,0,0.2,0,0.3c0,0,0,0-0.1,0h-4C44.1,52,44.9,53,46,53.1C46.1,53.1,46.2,53.1,46.2,53.1z M48.1,50.8c0-0.1,0-0.1,0-0.2
	c0-1-0.7-1.9-1.7-1.9c-0.1,0-0.1,0-0.2,0c-1.1,0-2,0.8-2.1,1.9c0,0.1,0,0.1,0,0.2L48.1,50.8z"/>
<path class="st2" d="M49.8,48.7C49.8,48.6,49.8,48.6,49.8,48.7L49.8,48.7L49.8,48.7c0.1-0.1,0.2,0,0.2,0v0v0.6
	c0.3-0.5,0.9-0.8,1.5-0.8c0.3,0,0.6,0.1,0.9,0.2c0,0,0,0.1,0,0.1v0.1c0,0-0.1,0-0.1,0c-0.2-0.1-0.5-0.2-0.7-0.2
	c-0.6,0-1.2,0.4-1.5,1v3.5c0,0,0,0.1-0.1,0.1h0l0,0c0,0-0.1,0-0.1-0.1v0L49.8,48.7z"/>
<path class="st2" d="M52.8,48.6C52.8,48.6,52.8,48.6,52.8,48.6L52.8,48.6c0.1-0.1,0.2-0.1,0.2-0.1l1.9,4.4l1.9-4.4c0,0,0-0.1,0.1,0
	H57c0,0,0,0,0,0.1l-2,4.7c0,0,0,0.1-0.1,0.1c0,0-0.1,0-0.1-0.1L52.8,48.6z"/>
<path class="st2" d="M58,46c0-0.1,0.1-0.2,0.2-0.2c0,0,0,0,0,0c0.1,0,0.2,0.1,0.2,0.2c0,0.1-0.1,0.2-0.2,0.2S58,46.1,58,46z
	 M58.1,48.7C58.1,48.7,58.2,48.6,58.1,48.7L58.1,48.7L58.1,48.7c0.1-0.1,0.2,0,0.2,0v0v4.5c0,0,0,0.1-0.1,0.1h0l0,0
	c0,0-0.1,0-0.1-0.1v0V48.7z"/>
<path class="st2" d="M62.3,48.5c0.6,0,1.3,0.2,1.8,0.6c0,0,0,0.1,0,0.1c0,0,0,0,0,0l0,0c0,0-0.1,0-0.1,0c0,0,0,0,0,0
	c-0.5-0.4-1-0.6-1.6-0.5c-1.2,0-2.2,0.9-2.3,2.1c0,0,0,0,0,0.1c0,1.2,1,2.2,2.3,2.2c0,0,0,0,0,0c0.6,0,1.2-0.3,1.7-0.7
	c0,0,0.1,0,0.1,0l0.1,0.1c0,0,0,0,0,0.1c-0.5,0.5-1.2,0.8-1.9,0.8c-1.4,0-2.5-1.1-2.5-2.4c0,0,0,0,0,0C59.9,49.5,61,48.5,62.3,48.5
	C62.3,48.5,62.3,48.5,62.3,48.5z"/>
<path class="st2" d="M67.7,53.1c0.6,0,1.1-0.2,1.6-0.5c0,0,0.1,0,0.1,0c0,0,0,0,0,0v0.1c0,0,0,0.1,0,0.1c-0.5,0.4-1.1,0.5-1.7,0.5
	c-1.3,0-2.3-1-2.3-2.3c0-0.1,0-0.1,0-0.2c-0.1-1.2,0.8-2.3,2.1-2.4c0.1,0,0.1,0,0.2,0c1.1-0.1,2,0.8,2.1,1.9c0,0.1,0,0.2,0,0.2
	c0,0.1,0,0.2,0,0.3c0,0,0,0-0.1,0h-4c-0.1,1.1,0.7,2.1,1.8,2.2C67.5,53.1,67.6,53.1,67.7,53.1z M69.5,50.8c0-0.1,0-0.1,0-0.2
	c0-1-0.7-1.9-1.7-1.9c-0.1,0-0.1,0-0.2,0c-1.1,0-2,0.8-2.1,1.9c0,0.1,0,0.1,0,0.2L69.5,50.8z"/>
</svg>
