<?xml version="1.0" standalone="no"?>
<!DOCTYPE svg PUBLIC "-//W3C//DTD SVG 20010904//EN"
 "http://www.w3.org/TR/2001/REC-SVG-20010904/DTD/svg10.dtd">
<svg version="1.0" xmlns="http://www.w3.org/2000/svg"
 width="90.000000pt" height="90.000000pt" viewBox="0 0 90.000000 90.000000"
 preserveAspectRatio="xMidYMid meet">
<metadata>
Created by potrace 1.11, written by Peter Selinger 2001-2013
</metadata>
<g transform="translate(0.000000,90.000000) scale(0.100000,-0.100000)"
fill="#000000" stroke="none">
<path d="M422 870 c-12 -16 -23 -33 -25 -37 -1 -4 -14 -20 -28 -36 -15 -16
-33 -41 -40 -55 -8 -15 -18 -30 -23 -34 -5 -3 -11 -15 -12 -24 -2 -10 -11 -24
-20 -31 -10 -7 -14 -13 -9 -13 4 0 1 -8 -7 -17 -20 -22 -73 -125 -70 -135 1
-5 -2 -8 -8 -8 -6 0 -9 -3 -9 -7 1 -5 0 -11 -1 -15 -1 -5 -3 -11 -5 -15 -1 -5
-7 -21 -13 -36 -7 -15 -11 -31 -10 -35 1 -4 -2 -15 -7 -25 -4 -9 -4 -30 0 -45
3 -15 7 -37 7 -49 0 -13 4 -23 9 -23 6 0 9 -6 7 -14 -8 -39 129 -186 174 -186
8 0 19 -5 26 -12 17 -17 184 -16 190 0 2 7 8 10 13 7 31 -20 179 122 196 188
22 86 24 125 12 167 -7 25 -12 48 -11 53 1 4 -3 7 -10 7 -6 0 -9 2 -6 5 3 3
-19 51 -48 106 -30 56 -54 105 -54 109 0 5 -6 13 -12 17 -7 4 -20 21 -29 36
-31 57 -131 187 -143 187 -7 0 -22 -13 -34 -30z"/>
</g>
</svg>
