<svg xmlns="http://www.w3.org/2000/svg" viewBox="0 0 71.71 56.9"><defs><style>.cls-1{fill:#18aea1;}.cls-2{fill:#12100e;}.cls-3{stroke:#000;stroke-miterlimit:10;stroke-width:0.2px;}</style></defs><title>Ресурс 1</title><g id="Слой_2" data-name="Слой 2"><g id="Слой_1-2" data-name="Слой 1"><path class="cls-1" d="M57.8,38.72A13.87,13.87,0,0,1,44,24.87C44,17.51,56.51,1,57.1.34A1,1,0,0,1,58.51.25l.1.09c.54.7,13.1,17.17,13.1,24.54a13.87,13.87,0,0,1-13.9,13.84Zm0-36.22C55.1,6.21,45.86,19.12,45.86,24.87a11.95,11.95,0,0,0,23.89,0c0-5.75-9.21-18.66-12-22.37Z"/><path class="cls-1" d="M58.55,35.09a1,1,0,0,1-.29-1.86,12,12,0,0,0,7.84-8.09.93.93,0,0,1,1.15-.66h0a1,1,0,0,1,.66,1.18A13.8,13.8,0,0,1,58.82,35a.71.71,0,0,1-.29,0Z"/><polygon class="cls-2" points="29.74 1.79 27.8 1.8 27.88 18.16 4.37 18.27 4.29 1.92 2.35 1.92 2.52 36.91 4.46 36.9 4.38 20.21 27.89 20.09 27.97 36.79 29.91 36.78 29.74 1.79"/><path class="cls-2" d="M42,40.33H36.2l3-3.31a8.42,8.42,0,0,0,1.44-1.86,3.71,3.71,0,0,0,.54-1.81,2.73,2.73,0,0,0-1-2.21,4,4,0,0,0-2.52-.77,5.1,5.1,0,0,0-2,.43A5.49,5.49,0,0,0,34.1,32l-.3.31.92,1.13L35.1,33a4.24,4.24,0,0,1,1.26-.87,3.53,3.53,0,0,1,1.39-.32,2.18,2.18,0,0,1,1.52.43,1.4,1.4,0,0,1,.49,1.14c0,.46-.26,1.3-1.53,2.67L34,40.62v.71h0v.48h8Z"/><path class="cls-3" d="M2.57,48.45a2.79,2.79,0,0,1,1.77.64.08.08,0,0,1,0,.09h0a.07.07,0,0,1-.11,0h0a2.53,2.53,0,0,0-1.61-.55A2.22,2.22,0,0,0,.3,50.74v.12A2.25,2.25,0,0,0,2.56,53.1h0a2.43,2.43,0,0,0,1.7-.73h.09l.06.06v.07a2.64,2.64,0,0,1-1.86.82A2.44,2.44,0,0,1,.1,50.89v0a2.4,2.4,0,0,1,2.39-2.41Z"/><path class="cls-3" d="M6,45.18A.09.09,0,0,1,6,45.1H6.1a.09.09,0,0,1,.08.08h0v7.93a.08.08,0,0,1-.08.08h0A.08.08,0,0,1,6,53.11H6Z"/><path class="cls-3" d="M10,53.1a2.62,2.62,0,0,0,1.57-.5h.09v.15a2.84,2.84,0,0,1-1.69.54A2.27,2.27,0,0,1,7.66,51a1.41,1.41,0,0,1,0-.2,2.24,2.24,0,0,1,2.07-2.39H10a2,2,0,0,1,2.15,1.84,1.4,1.4,0,0,1,0,.29,1,1,0,0,1,0,.35H8A2,2,0,0,0,9.84,53.1Zm1.88-2.33a.67.67,0,0,0,0-.2,1.84,1.84,0,0,0-1.75-1.91H10A2,2,0,0,0,7.9,50.6v.16Z"/><path class="cls-3" d="M15.2,50.16a4.5,4.5,0,0,1,1.36.27V50c0-.91-.3-1.34-1.28-1.34a2.78,2.78,0,0,0-1.41.35h-.1v-.15a3,3,0,0,1,1.53-.38c1.13,0,1.49.5,1.49,1.55v3.11a.08.08,0,0,1-.08.08h0a.08.08,0,0,1-.08-.08h0V52.6a2.85,2.85,0,0,1-1.79.72,1.51,1.51,0,0,1-1.61-1.4v-.16C13.16,50.84,14,50.16,15.2,50.16Zm-.43,2.94a2.49,2.49,0,0,0,1.79-.8V50.64a5.29,5.29,0,0,0-1.36-.27c-1.11,0-1.83.58-1.83,1.38a1.31,1.31,0,0,0,1.24,1.36Z"/><path class="cls-3" d="M18.6,48.65a.09.09,0,0,1,.08-.08h0a.09.09,0,0,1,.08.08h0v.64a2.52,2.52,0,0,1,1.8-.83c1.25,0,1.92.75,1.92,2.15v2.51a.08.08,0,0,1-.08.08h0a.08.08,0,0,1-.08-.08h0V50.6c0-1.26-.6-1.94-1.71-1.94a2.45,2.45,0,0,0-1.8,1v3.5a.08.08,0,0,1-.08.08h0a.08.08,0,0,1-.08-.08h0Z"/><path class="cls-3" d="M24.22,46a.23.23,0,0,1,.22-.24h0a.25.25,0,0,1,.23.24.23.23,0,1,1-.46,0Zm.12,2.7a.09.09,0,0,1,.08-.08h0a.09.09,0,0,1,.08.08h0v4.46a.08.08,0,0,1-.08.08h0a.08.08,0,0,1-.08-.08h0Z"/><path class="cls-3" d="M26.41,48.65a.09.09,0,0,1,.08-.08h0a.09.09,0,0,1,.08.08h0v.64a2.52,2.52,0,0,1,1.8-.83c1.25,0,1.92.75,1.92,2.15v2.51a.08.08,0,0,1-.08.08h0a.08.08,0,0,1-.08-.08h0V50.6c0-1.26-.6-1.94-1.71-1.94a2.45,2.45,0,0,0-1.8,1v3.5a.08.08,0,0,1-.08.08h0a.08.08,0,0,1-.08-.08h0Z"/><path class="cls-3" d="M32.41,51.48a1.91,1.91,0,0,1-.31-1.17,1.83,1.83,0,0,1,1.78-1.86H36a.09.09,0,0,1,.08.08h0a.08.08,0,0,1-.08.08H35a1.68,1.68,0,0,1,.92,1.65,1.85,1.85,0,0,1-1.79,1.88H34a1.87,1.87,0,0,1-1.43-.54,1.1,1.1,0,0,0-.67,1,.75.75,0,0,0,.73.79h2.16c1,0,1.69.43,1.69,1.48a2.1,2.1,0,0,1-2.26,1.93h-.1a2,2,0,0,1-2.26-1.7s0-.06,0-.1a1.62,1.62,0,0,1,.79-1.35,1,1,0,0,1-.95-1A1.28,1.28,0,0,1,32.41,51.48Zm1.69,5.09c1.32,0,2.13-.8,2.13-1.69s-.59-1.28-1.48-1.28H33.1A1.46,1.46,0,0,0,32,55C32,55.66,32.67,56.57,34.1,56.57Zm1.55-6.25a1.52,1.52,0,0,0-1.34-1.65H34a1.63,1.63,0,0,0-1.71,1.53v.12A1.57,1.57,0,0,0,33.7,52,1.31,1.31,0,0,0,34,52a1.62,1.62,0,0,0,1.69-1.56v-.11Z"/><path class="cls-3" d="M39.71,52.71l.06-.08h.1a2.1,2.1,0,0,0,1.4.47c.83,0,1.46-.46,1.46-1.06s-.69-.9-1.56-1.14-1.53-.6-1.53-1.25.47-1.19,1.56-1.19a2.55,2.55,0,0,1,1.32.37.08.08,0,0,1,0,.09h0V49s0,.06-.1,0a2.32,2.32,0,0,0-1.2-.34c-.95,0-1.34.55-1.34,1s.46.8,1.35,1S43,51.19,43,52s-.75,1.27-1.69,1.27a2.29,2.29,0,0,1-1.53-.52S39.7,52.74,39.71,52.71Z"/><path class="cls-3" d="M46.32,53.1a2.62,2.62,0,0,0,1.57-.5.06.06,0,0,1,.08,0h0v.15a2.84,2.84,0,0,1-1.69.54A2.27,2.27,0,0,1,44,51a1.41,1.41,0,0,1,0-.2,2.24,2.24,0,0,1,2.07-2.39h.21a2,2,0,0,1,2.1,1.9,1.62,1.62,0,0,1,0,.22,1,1,0,0,1,0,.35.09.09,0,0,1-.07,0h-4a2,2,0,0,0,1.8,2.19Zm1.88-2.33a.67.67,0,0,0,0-.2,1.84,1.84,0,0,0-1.75-1.91H46.3a2,2,0,0,0-2.06,1.94v.16Z"/><path class="cls-3" d="M49.89,48.65a.09.09,0,0,1,.08-.08h0a.09.09,0,0,1,.08.08h0v.61a1.9,1.9,0,0,1,1.5-.81,1.61,1.61,0,0,1,.86.21.09.09,0,0,1,0,.1v.06a.07.07,0,0,1-.1,0,1.45,1.45,0,0,0-.74-.18,1.84,1.84,0,0,0-1.5,1v3.5a.08.08,0,0,1-.08.08h0a.08.08,0,0,1-.08-.08h0Z"/><path class="cls-3" d="M52.89,48.63v-.09h.16L55,53l1.94-4.43s0-.06.08,0h.08v.09l-2,4.68a.07.07,0,1,1-.14,0Z"/><path class="cls-3" d="M58.1,46a.23.23,0,0,1,.22-.24h0a.25.25,0,0,1,.23.24.23.23,0,0,1-.46,0Zm.12,2.7a.09.09,0,0,1,.08-.08h0a.09.09,0,0,1,.08.08h0v4.46a.08.08,0,0,1-.08.08h0a.08.08,0,0,1-.08-.08h0Z"/><path class="cls-3" d="M62.43,48.45a2.79,2.79,0,0,1,1.77.64.08.08,0,0,1,0,.09h0a.07.07,0,0,1-.11,0h0a2.53,2.53,0,0,0-1.61-.55,2.22,2.22,0,0,0-2.28,2.14v.06a2.25,2.25,0,0,0,2.26,2.24h0a2.43,2.43,0,0,0,1.7-.73h.09l.06.06v.07a2.64,2.64,0,0,1-1.86.82A2.44,2.44,0,0,1,60,50.86v0a2.41,2.41,0,0,1,2.41-2.39Z"/><path class="cls-3" d="M67.76,53.1a2.62,2.62,0,0,0,1.57-.5.06.06,0,0,1,.08,0h0v.15a2.84,2.84,0,0,1-1.69.54A2.27,2.27,0,0,1,65.44,51a1.41,1.41,0,0,1,0-.2,2.24,2.24,0,0,1,2.07-2.39h.21a2,2,0,0,1,2.1,1.9,1.62,1.62,0,0,1,0,.22,1,1,0,0,1,0,.35.09.09,0,0,1-.07,0h-4a2,2,0,0,0,1.8,2.19Zm1.88-2.33a.67.67,0,0,0,0-.2,1.84,1.84,0,0,0-1.75-1.91h-.15a2,2,0,0,0-2.06,1.94v.16Z"/></g></g></svg>