<?xml version="1.0" encoding="utf-8"?>
<!-- Generator: Adobe Illustrator 22.0.1, SVG Export Plug-In . SVG Version: 6.00 Build 0)  -->
<svg version="1.1" id="Слой_1" xmlns="http://www.w3.org/2000/svg" xmlns:xlink="http://www.w3.org/1999/xlink" x="0px" y="0px"
	 viewBox="0 0 15.4 30.8" style="enable-background:new 0 0 15.4 30.8;" xml:space="preserve">
<style type="text/css">
	.st0{fill:#60C6D1;}
</style>
<title>Ресурс 1</title>
<g id="Слой_2_1_">
	<g id="Слой_1-2">
		<path class="st0" d="M12.6,30.7c1.5,0,2.8-1.2,2.8-2.7c0,0,0-0.1,0-0.1V2.8c0-1.5-1.2-2.8-2.7-2.8c0,0-0.1,0-0.1,0H2.8
			C1.3,0,0,1.2,0,2.7c0,0,0,0.1,0,0.1v25.1c0,1.5,1.2,2.8,2.7,2.8c0,0,0.1,0,0.1,0H12.6z M7.7,29.6c-0.8,0-1.4-0.6-1.4-1.4
			c0-0.8,0.6-1.4,1.4-1.4s1.4,0.6,1.4,1.4l0,0C9.1,29,8.4,29.6,7.7,29.6z M5.6,1.7c0-0.2,0.1-0.3,0.2-0.3h3.8c0.1,0,0.2,0.1,0.2,0.3
			v0.1c0,0.2-0.1,0.3-0.2,0.3H5.8C5.7,2.1,5.6,2,5.6,1.7L5.6,1.7z M1.4,3.5H14v22.3H1.4V3.5z"/>
	</g>
</g>
</svg>
