<svg xmlns="http://www.w3.org/2000/svg" viewBox="0 0 15.35 30.75"><defs><style>.cls-1{fill:#18ac9f;fill-rule:evenodd;}</style></defs><title>Ресурс 2</title><g id="Слой_2" data-name="Слой 2"><g id="_10" data-name="10"><path class="cls-1" d="M12.56,30.75a2.74,2.74,0,0,0,2.79-2.81V2.79A2.73,2.73,0,0,0,12.56,0H2.79A2.73,2.73,0,0,0,0,2.79V27.94a2.74,2.74,0,0,0,2.79,2.81ZM7.67,29.58a1.4,1.4,0,1,1,1.4-1.4,1.4,1.4,0,0,1-1.4,1.4ZM5.58,1.7c0-.17.08-.3.18-.3H9.58c.1,0,.19.13.19.3v.08c0,.18-.09.31-.19.31H5.76c-.1,0-.18-.13-.18-.31ZM1.4,3.49H14V25.81H1.4Z"/></g></g></svg>